<svg width="29" height="29" viewBox="0 0 29 29" fill="none" xmlns="http://www.w3.org/2000/svg">
<path d="M3.33366 19.3333V3.33334H0.666992V0.666672H4.66699C5.02061 0.666672 5.35975 0.807147 5.6098 1.0572C5.85985 1.30724 6.00033 1.64638 6.00033 2.00001V18H22.5843L25.251 7.33334H8.66699V4.66667H26.9603C27.163 4.66668 27.363 4.71289 27.5451 4.80179C27.7273 4.89069 27.8868 5.01994 28.0114 5.17972C28.1361 5.3395 28.2227 5.5256 28.2647 5.72389C28.3067 5.92217 28.3029 6.12741 28.2537 6.32401L24.9203 19.6573C24.8481 19.9457 24.6816 20.2016 24.4473 20.3845C24.2129 20.5673 23.9242 20.6667 23.627 20.6667H4.66699C4.31337 20.6667 3.97423 20.5262 3.72418 20.2761C3.47413 20.0261 3.33366 19.687 3.33366 19.3333ZM6.00033 28.6667C5.29308 28.6667 4.6148 28.3857 4.11471 27.8856C3.61461 27.3855 3.33366 26.7073 3.33366 26C3.33366 25.2928 3.61461 24.6145 4.11471 24.1144C4.6148 23.6143 5.29308 23.3333 6.00033 23.3333C6.70757 23.3333 7.38585 23.6143 7.88594 24.1144C8.38604 24.6145 8.66699 25.2928 8.66699 26C8.66699 26.7073 8.38604 27.3855 7.88594 27.8856C7.38585 28.3857 6.70757 28.6667 6.00033 28.6667ZM22.0003 28.6667C21.2931 28.6667 20.6148 28.3857 20.1147 27.8856C19.6146 27.3855 19.3337 26.7073 19.3337 26C19.3337 25.2928 19.6146 24.6145 20.1147 24.1144C20.6148 23.6143 21.2931 23.3333 22.0003 23.3333C22.7076 23.3333 23.3858 23.6143 23.8859 24.1144C24.386 24.6145 24.667 25.2928 24.667 26C24.667 26.7073 24.386 27.3855 23.8859 27.8856C23.3858 28.3857 22.7076 28.6667 22.0003 28.6667Z" fill="#E7E7E7"/>
</svg>
