<svg width="24" height="28" viewBox="0 0 24 28" fill="none" xmlns="http://www.w3.org/2000/svg">
<path d="M24 8.66666V25.9907C24.0012 26.1658 23.968 26.3394 23.9021 26.5016C23.8362 26.6639 23.739 26.8115 23.6161 26.9362C23.4931 27.0609 23.3468 27.1601 23.1855 27.2283C23.0242 27.2964 22.8511 27.3321 22.676 27.3333H1.324C0.973084 27.3333 0.636522 27.194 0.388262 26.946C0.140002 26.698 0.000353389 26.3616 0 26.0107V1.98932C0 1.27332 0.598666 0.666656 1.336 0.666656H15.996L24 8.66666ZM21.3333 9.99999H14.6667V3.33332H2.66667V24.6667H21.3333V9.99999ZM6.66667 7.33332H10.6667V9.99999H6.66667V7.33332ZM6.66667 12.6667H17.3333V15.3333H6.66667V12.6667ZM6.66667 18H17.3333V20.6667H6.66667V18Z" fill="#E7E7E7"/>
</svg>
