<svg width="28" height="28" viewBox="0 0 28 28" fill="none" xmlns="http://www.w3.org/2000/svg">
<path d="M13.9998 0.666504C17.6225 0.666504 18.0745 0.679837 19.4958 0.746504C20.9158 0.813171 21.8825 1.03584 22.7332 1.3665C23.6132 1.70517 24.3545 2.16384 25.0958 2.90384C25.7738 3.57037 26.2984 4.37662 26.6332 5.2665C26.9625 6.11584 27.1865 7.08384 27.2532 8.50384C27.3158 9.92517 27.3332 10.3772 27.3332 13.9998C27.3332 17.6225 27.3198 18.0745 27.2532 19.4958C27.1865 20.9158 26.9625 21.8825 26.6332 22.7332C26.2994 23.6235 25.7747 24.43 25.0958 25.0958C24.4291 25.7736 23.6229 26.2982 22.7332 26.6332C21.8838 26.9625 20.9158 27.1865 19.4958 27.2532C18.0745 27.3158 17.6225 27.3332 13.9998 27.3332C10.3772 27.3332 9.92517 27.3198 8.50384 27.2532C7.08384 27.1865 6.11717 26.9625 5.2665 26.6332C4.37627 26.2991 3.56987 25.7744 2.90384 25.0958C2.22571 24.4294 1.70108 23.6231 1.3665 22.7332C1.03584 21.8838 0.813171 20.9158 0.746504 19.4958C0.683837 18.0745 0.666504 17.6225 0.666504 13.9998C0.666504 10.3772 0.679837 9.92517 0.746504 8.50384C0.813171 7.0825 1.03584 6.11717 1.3665 5.2665C1.70015 4.37608 2.22491 3.5696 2.90384 2.90384C3.57007 2.22548 4.37641 1.70081 5.2665 1.3665C6.11717 1.03584 7.0825 0.813171 8.50384 0.746504C9.92517 0.683837 10.3772 0.666504 13.9998 0.666504ZM13.9998 7.33317C12.2317 7.33317 10.536 8.03555 9.28579 9.28579C8.03555 10.536 7.33317 12.2317 7.33317 13.9998C7.33317 15.7679 8.03555 17.4636 9.28579 18.7139C10.536 19.9641 12.2317 20.6665 13.9998 20.6665C15.7679 20.6665 17.4636 19.9641 18.7139 18.7139C19.9641 17.4636 20.6665 15.7679 20.6665 13.9998C20.6665 12.2317 19.9641 10.536 18.7139 9.28579C17.4636 8.03555 15.7679 7.33317 13.9998 7.33317ZM22.6665 6.99984C22.6665 6.55781 22.4909 6.13389 22.1784 5.82133C21.8658 5.50877 21.4419 5.33317 20.9998 5.33317C20.5578 5.33317 20.1339 5.50877 19.8213 5.82133C19.5088 6.13389 19.3332 6.55781 19.3332 6.99984C19.3332 7.44186 19.5088 7.86579 19.8213 8.17835C20.1339 8.49091 20.5578 8.6665 20.9998 8.6665C21.4419 8.6665 21.8658 8.49091 22.1784 8.17835C22.4909 7.86579 22.6665 7.44186 22.6665 6.99984ZM13.9998 9.99984C15.0607 9.99984 16.0781 10.4213 16.8283 11.1714C17.5784 11.9216 17.9998 12.939 17.9998 13.9998C17.9998 15.0607 17.5784 16.0781 16.8283 16.8283C16.0781 17.5784 15.0607 17.9998 13.9998 17.9998C12.939 17.9998 11.9216 17.5784 11.1714 16.8283C10.4213 16.0781 9.99984 15.0607 9.99984 13.9998C9.99984 12.939 10.4213 11.9216 11.1714 11.1714C11.9216 10.4213 12.939 9.99984 13.9998 9.99984Z"/>
</svg>
